<svg width="22" height="20" viewBox="0 0 22 20" fill="none" xmlns="http://www.w3.org/2000/svg">
<path d="M15.1 10.5L13.65 9.05003C13.8 8.2667 13.575 7.53336 12.975 6.85003C12.375 6.1667 11.6 5.90003 10.65 6.05003L9.2 4.60003C9.48333 4.4667 9.77083 4.3667 10.0625 4.30003C10.3542 4.23336 10.6667 4.20003 11 4.20003C12.25 4.20003 13.3125 4.63753 14.1875 5.51253C15.0625 6.38753 15.5 7.45003 15.5 8.70003C15.5 9.03336 15.4667 9.34586 15.4 9.63753C15.3333 9.9292 15.2333 10.2167 15.1 10.5V10.5M18.3 13.65L16.85 12.25C17.4833 11.7667 18.0458 11.2375 18.5375 10.6625C19.0292 10.0875 19.45 9.43336 19.8 8.70003C18.9667 7.0167 17.7708 5.6792 16.2125 4.68753C14.6542 3.69586 12.9167 3.20003 11 3.20003C10.5167 3.20003 10.0417 3.23336 9.575 3.30003C9.10833 3.3667 8.65 3.4667 8.2 3.60003L6.65 2.05003C7.33333 1.7667 8.03333 1.5542 8.75 1.41253C9.46667 1.27086 10.2167 1.20003 11 1.20003C13.5167 1.20003 15.7583 1.89586 17.725 3.28753C19.6917 4.6792 21.1167 6.48336 22 8.70003C21.6167 9.68336 21.1125 10.5959 20.4875 11.4375C19.8625 12.2792 19.1333 13.0167 18.3 13.65V13.65M18.8 19.8L14.6 15.65C14.0167 15.8334 13.4292 15.9709 12.8375 16.0625C12.2458 16.1542 11.6333 16.2 11 16.2C8.48333 16.2 6.24167 15.5042 4.275 14.1125C2.30833 12.7209 0.883333 10.9167 0 8.70003C0.35 7.8167 0.791667 6.99586 1.325 6.23753C1.85833 5.4792 2.46667 4.80003 3.15 4.20003L0.4 1.40003L1.8 3.05176e-05L20.2 18.4L18.8 19.8V19.8M4.55 5.60003C4.06667 6.03336 3.625 6.50836 3.225 7.02503C2.825 7.5417 2.48333 8.10003 2.2 8.70003C3.03333 10.3834 4.22917 11.7209 5.7875 12.7125C7.34583 13.7042 9.08333 14.2 11 14.2C11.3333 14.2 11.6583 14.1792 11.975 14.1375C12.2917 14.0959 12.6167 14.05 12.95 14L12.05 13.05C11.8667 13.1 11.6917 13.1375 11.525 13.1625C11.3583 13.1875 11.1833 13.2 11 13.2C9.75 13.2 8.6875 12.7625 7.8125 11.8875C6.9375 11.0125 6.5 9.95003 6.5 8.70003C6.5 8.5167 6.5125 8.3417 6.5375 8.17503C6.5625 8.00836 6.6 7.83336 6.65 7.65003L4.55 5.60003V5.60003M12.525 7.92503V7.92503V7.92503V7.92503V7.92503V7.92503V7.92503V7.92503V7.92503M8.75 9.80003V9.80003V9.80003V9.80003V9.80003V9.80003V9.80003V9.80003V9.80003" fill="#BC0100"/>
</svg>
