<svg width="12" height="12" viewBox="0 0 12 12" fill="none" xmlns="http://www.w3.org/2000/svg">
<path d="M10.9336 9.31641C11.1445 9.55078 11.25 9.82031 11.25 10.125V10.125C11.25 10.4297 11.1445 10.6992 10.9336 10.9336C10.6992 11.1445 10.4297 11.25 10.125 11.25C9.82031 11.25 9.55078 11.1445 9.31641 10.9336L5.625 7.20703L1.93359 10.9336C1.69922 11.1445 1.42969 11.25 1.125 11.25C0.820312 11.25 0.550781 11.1445 0.316406 10.9336C0.105469 10.6992 0 10.4297 0 10.125C0 9.82031 0.105469 9.55078 0.316406 9.31641L4.04297 5.625L0.316406 1.93359C0.105469 1.69922 0 1.42969 0 1.125C0 0.820312 0.105469 0.550781 0.316406 0.316406C0.550781 0.105469 0.820312 0 1.125 0C1.42969 0 1.69922 0.105469 1.93359 0.316406L5.625 4.04297L9.31641 0.316406C9.55078 0.105469 9.82031 0 10.125 0C10.4297 0 10.6992 0.105469 10.9336 0.316406C11.1445 0.550781 11.25 0.820312 11.25 1.125C11.25 1.42969 11.1445 1.69922 10.9336 1.93359L7.20703 5.625L10.9336 9.31641V9.31641V9.31641" fill="#4B5563"/>
</svg>
